<svg xmlns="http://www.w3.org/2000/svg" width="127.42" height="21.72" viewBox="0 0 127.42 21.72">
  <path id="1"  d="M10.22-11.76H5.5v2.52H9.8v3.32H5.5V0H1.58V-15.08h8.64Zm5.6,1.5V0H12.2V-10.26ZM11.96-14.2a1.969,1.969,0,0,1,.16-.79,2.075,2.075,0,0,1,.44-.65,2.075,2.075,0,0,1,.65-.44,1.969,1.969,0,0,1,.79-.16,1.969,1.969,0,0,1,.79.16,2.075,2.075,0,0,1,.65.44,2.075,2.075,0,0,1,.44.65,1.969,1.969,0,0,1,.16.79,1.969,1.969,0,0,1-.16.79,2.075,2.075,0,0,1-.44.65,2.075,2.075,0,0,1-.65.44,1.969,1.969,0,0,1-.79.16,1.969,1.969,0,0,1-.79-.16,2.075,2.075,0,0,1-.65-.44,2.075,2.075,0,0,1-.44-.65A1.969,1.969,0,0,1,11.96-14.2ZM25.1-7.62a4.23,4.23,0,0,0-1.96-.52,1.473,1.473,0,0,0-.81.2.615.615,0,0,0-.31.54.708.708,0,0,0,.05.29.516.516,0,0,0,.22.21,1.908,1.908,0,0,0,.5.18q.33.08.87.2A4.156,4.156,0,0,1,25.9-5.45a2.726,2.726,0,0,1,.74,1.97,3.572,3.572,0,0,1-.36,1.62,3.445,3.445,0,0,1-1,1.21,4.753,4.753,0,0,1-1.54.76,6.869,6.869,0,0,1-1.98.27A8.046,8.046,0,0,1,17.66-.8l1.32-2.56a5.157,5.157,0,0,0,2.88,1.04,1.417,1.417,0,0,0,.82-.22A.658.658,0,0,0,23-3.1a.929.929,0,0,0-.05-.33.538.538,0,0,0-.21-.24,1.674,1.674,0,0,0-.47-.2q-.31-.09-.81-.19a4.639,4.639,0,0,1-2.35-1.01,2.5,2.5,0,0,1-.67-1.85,3.641,3.641,0,0,1,.32-1.55,3.209,3.209,0,0,1,.92-1.17,4.313,4.313,0,0,1,1.45-.74,6.445,6.445,0,0,1,1.89-.26,8.576,8.576,0,0,1,3.3.66Zm3.38-8.98H32.1v7.64a3.963,3.963,0,0,1,1.5-1.21,4.693,4.693,0,0,1,1.78-.31,3.8,3.8,0,0,1,2.93,1.07,4.088,4.088,0,0,1,.99,2.89V0H35.68V-5.18a5.365,5.365,0,0,0-.12-1.26,1.466,1.466,0,0,0-.4-.74A1.7,1.7,0,0,0,34-7.6a1.79,1.79,0,0,0-1.41.55,2.284,2.284,0,0,0-.49,1.57V0H28.48ZM55.32-9.58q1.4-.84,1.4-1.88a1.4,1.4,0,0,0-.37-.97,1.222,1.222,0,0,0-.95-.41,1.221,1.221,0,0,0-.9.36,1.221,1.221,0,0,0-.36.9A3.586,3.586,0,0,0,55.32-9.58ZM53.7-6.3q-1.42.88-1.42,1.76a1.262,1.262,0,0,0,.14.59,1.406,1.406,0,0,0,.38.46,1.9,1.9,0,0,0,.55.3,1.99,1.99,0,0,0,.67.11,3.9,3.9,0,0,0,2.06-.66Zm5.24.54A17.3,17.3,0,0,0,60.9-7.92l2.22,2.14a11.579,11.579,0,0,1-.77.93q-.43.47-.99.99l-.3.28L64.42,0H59.54L58.22-1.38A9.392,9.392,0,0,1,53.04.42,5.64,5.64,0,0,1,51.1.1a4.551,4.551,0,0,1-1.52-.9,4.154,4.154,0,0,1-1-1.37,4.122,4.122,0,0,1-.36-1.73,4.455,4.455,0,0,1,.23-1.49,3.608,3.608,0,0,1,.79-1.25,4.751,4.751,0,0,1,.93-.79,10.032,10.032,0,0,1,1.25-.67l.42-.2-.26-.3a4.551,4.551,0,0,1-1.16-2.78,3.782,3.782,0,0,1,.36-1.64,3.984,3.984,0,0,1,.99-1.31,4.622,4.622,0,0,1,1.49-.86,5.445,5.445,0,0,1,1.86-.31,5.506,5.506,0,0,1,1.88.31,4.525,4.525,0,0,1,1.49.87,4,4,0,0,1,.98,1.31,3.806,3.806,0,0,1,.35,1.63,3.962,3.962,0,0,1-.14,1.09,2.74,2.74,0,0,1-.47.92,4.239,4.239,0,0,1-.86.82,9.672,9.672,0,0,1-1.31.79ZM72.12,0l2.56-15.08h3.88l3.02,8.04,3-8.04h3.88L91.02,0h-3.9l-1.3-8.68L82.26,0H80.7L77.32-8.68,76.02,0ZM95.98-5.16a2.384,2.384,0,0,0,.18.93,2.4,2.4,0,0,0,.49.75,2.2,2.2,0,0,0,.74.5,2.384,2.384,0,0,0,.93.18,2.333,2.333,0,0,0,.91-.18,2.2,2.2,0,0,0,.74-.5,2.585,2.585,0,0,0,.5-.74,2.158,2.158,0,0,0,.19-.9,2.227,2.227,0,0,0-.19-.91,2.545,2.545,0,0,0-.5-.75,2.2,2.2,0,0,0-.74-.5,2.333,2.333,0,0,0-.91-.18,2.384,2.384,0,0,0-.93.18,2.2,2.2,0,0,0-.74.5,2.465,2.465,0,0,0-.49.73A2.189,2.189,0,0,0,95.98-5.16Zm4.56-5.1h3.64V0h-3.64V-1.14A3.8,3.8,0,0,1,97.4.32a5.1,5.1,0,0,1-2.06-.41A4.968,4.968,0,0,1,93.7-1.24a5.309,5.309,0,0,1-1.09-1.74,5.949,5.949,0,0,1-.39-2.18,5.782,5.782,0,0,1,.38-2.09,5.374,5.374,0,0,1,1.06-1.73,5,5,0,0,1,1.62-1.17,4.941,4.941,0,0,1,2.08-.43,4.179,4.179,0,0,1,3.18,1.34ZM114.82-5.1a2.452,2.452,0,0,0-.17-.91,2.184,2.184,0,0,0-.49-.75,2.45,2.45,0,0,0-.75-.51,2.275,2.275,0,0,0-.93-.19,2.26,2.26,0,0,0-.9.18,2.226,2.226,0,0,0-.73.5,2.545,2.545,0,0,0-.5.75,2.227,2.227,0,0,0-.19.91,2.26,2.26,0,0,0,.18.9,2.225,2.225,0,0,0,.5.73,2.545,2.545,0,0,0,.75.5,2.227,2.227,0,0,0,.91.19,2.26,2.26,0,0,0,.9-.18,2.226,2.226,0,0,0,.73-.5,2.585,2.585,0,0,0,.5-.74A2.111,2.111,0,0,0,114.82-5.1ZM110.26,5.12h-3.62V-10.26h3.62v1.14a3.819,3.819,0,0,1,3.16-1.46,4.913,4.913,0,0,1,2.05.43,5.2,5.2,0,0,1,1.65,1.17,5.309,5.309,0,0,1,1.09,1.74,5.837,5.837,0,0,1,.39,2.14,5.681,5.681,0,0,1-.39,2.12,5.45,5.45,0,0,1-1.08,1.72A4.984,4.984,0,0,1,115.5-.1a4.943,4.943,0,0,1-2.04.42A4.274,4.274,0,0,1,110.26-1Zm17.2-12.74a4.23,4.23,0,0,0-1.96-.52,1.473,1.473,0,0,0-.81.2.615.615,0,0,0-.31.54.708.708,0,0,0,.05.29.516.516,0,0,0,.22.21,1.908,1.908,0,0,0,.5.18q.33.08.87.2a4.156,4.156,0,0,1,2.24,1.07A2.726,2.726,0,0,1,129-3.48a3.572,3.572,0,0,1-.36,1.62,3.446,3.446,0,0,1-1,1.21,4.753,4.753,0,0,1-1.54.76,6.869,6.869,0,0,1-1.98.27,8.046,8.046,0,0,1-4.1-1.18l1.32-2.56a5.157,5.157,0,0,0,2.88,1.04,1.417,1.417,0,0,0,.82-.22.658.658,0,0,0,.32-.56.929.929,0,0,0-.05-.33.538.538,0,0,0-.21-.24,1.674,1.674,0,0,0-.47-.2q-.31-.09-.81-.19a4.639,4.639,0,0,1-2.35-1.01,2.5,2.5,0,0,1-.67-1.85,3.641,3.641,0,0,1,.32-1.55,3.209,3.209,0,0,1,.92-1.17,4.313,4.313,0,0,1,1.45-.74,6.445,6.445,0,0,1,1.89-.26,8.576,8.576,0,0,1,3.3.66Z" transform="translate(-1.58 16.6)" fill="#707070"/>
</svg>
